# MagicaVoxel @ Ephtracy

# group
g Wizard 1 Body

# material
mtllib Wizard 1 Body.mtl
usemtl palette

# normals
vn -1 0 0
vn 1 0 0
vn 0 0 1
vn 0 0 -1
vn 0 -1 0
vn 0 1 0

# texcoords
vt 0.146484 0.5
vt 0.537109 0.5
vt 0.556641 0.5

# verts
v -6 0 6
v -6 0 -2
v -6 1 6
v -6 1 -2
v -5 0 7
v -5 0 6
v -5 0 -2
v -5 0 -5
v -5 1 7
v -5 1 6
v -5 1 5
v -5 1 -1
v -5 1 -2
v -5 1 -5
v -5 5 -0
v -5 5 -1
v -5 6 5
v -5 6 -0
v -4 0 8
v -4 0 7
v -4 0 -5
v -4 0 -7
v -4 1 8
v -4 1 7
v -4 1 5
v -4 1 -1
v -4 1 -4
v -4 1 -5
v -4 1 -7
v -4 3 -3
v -4 3 -4
v -4 5 -0
v -4 5 -1
v -4 5 -2
v -4 5 -3
v -4 6 7
v -4 6 6
v -4 6 5
v -4 6 -0
v -4 6 -1
v -4 6 -2
v -4 8 6
v -4 8 5
v -4 10 5
v -4 10 -1
v -3 0 9
v -3 0 8
v -3 0 -7
v -3 0 -8
v -3 1 9
v -3 1 8
v -3 1 7
v -3 1 -4
v -3 1 -5
v -3 1 -7
v -3 1 -8
v -3 2 -4
v -3 2 -5
v -3 3 -3
v -3 3 -4
v -3 4 8
v -3 4 7
v -3 5 -2
v -3 5 -3
v -3 6 7
v -3 6 6
v -3 6 -1
v -3 6 -2
v -3 8 6
v -3 8 5
v -3 8 -3
v -3 8 -4
v -3 10 5
v -3 10 -1
v -3 10 -2
v -3 10 -3
v -3 11 7
v -3 11 -2
v -2 0 -8
v -2 0 -9
v -2 1 -5
v -2 1 -7
v -2 1 -8
v -2 1 -9
v -2 2 -4
v -2 2 -5
v -2 2 -6
v -2 2 -7
v -2 3 -5
v -2 3 -6
v -2 4 8
v -2 4 7
v -2 6 -4
v -2 6 -5
v -2 8 -3
v -2 8 -4
v -2 10 -3
v -2 10 -4
v -2 11 7
v -2 11 -0
v -2 12 8
v -2 12 7
v -2 12 1
v -2 12 -0
v -2 13 4
v -2 13 1
v -2 14 7
v -2 14 4
v -1 1 -7
v -1 1 -8
v -1 2 -6
v -1 2 -7
v -1 2 -8
v -1 3 -5
v -1 3 -6
v -1 3 -7
v -1 6 -4
v -1 6 -5
v -1 6 -6
v -1 7 9
v -1 7 8
v -1 8 -4
v -1 8 -5
v -1 10 -2
v -1 10 -3
v -1 11 -0
v -1 11 -1
v -1 11 -2
v -1 11 -3
v -1 12 9
v -1 12 8
v -1 12 7
v -1 12 -0
v -1 12 -1
v -1 14 8
v -1 14 7
v 1 13 5
v 1 13 4
v 1 14 5
v 1 14 4
v -1 13 5
v -1 13 4
v -1 14 5
v -1 14 4
v 1 1 -7
v 1 1 -8
v 1 2 -6
v 1 2 -7
v 1 2 -8
v 1 3 -5
v 1 3 -6
v 1 3 -7
v 1 6 -4
v 1 6 -5
v 1 6 -6
v 1 7 9
v 1 7 8
v 1 8 -4
v 1 8 -5
v 1 10 -2
v 1 10 -3
v 1 11 -0
v 1 11 -1
v 1 11 -2
v 1 11 -3
v 1 12 9
v 1 12 8
v 1 12 7
v 1 12 -0
v 1 12 -1
v 1 14 8
v 1 14 7
v 2 0 -8
v 2 0 -9
v 2 1 -5
v 2 1 -7
v 2 1 -8
v 2 1 -9
v 2 2 -4
v 2 2 -5
v 2 2 -6
v 2 2 -7
v 2 3 -5
v 2 3 -6
v 2 4 8
v 2 4 7
v 2 6 -4
v 2 6 -5
v 2 8 -3
v 2 8 -4
v 2 10 -3
v 2 10 -4
v 2 11 7
v 2 11 -0
v 2 12 8
v 2 12 7
v 2 12 1
v 2 12 -0
v 2 13 4
v 2 13 1
v 2 14 7
v 2 14 4
v 3 0 9
v 3 0 8
v 3 0 -7
v 3 0 -8
v 3 1 9
v 3 1 8
v 3 1 7
v 3 1 -4
v 3 1 -5
v 3 1 -7
v 3 1 -8
v 3 2 -4
v 3 2 -5
v 3 3 -3
v 3 3 -4
v 3 4 8
v 3 4 7
v 3 5 -2
v 3 5 -3
v 3 6 7
v 3 6 6
v 3 6 -1
v 3 6 -2
v 3 8 6
v 3 8 5
v 3 8 -3
v 3 8 -4
v 3 10 5
v 3 10 -1
v 3 10 -2
v 3 10 -3
v 3 11 7
v 3 11 -2
v 4 0 8
v 4 0 7
v 4 0 -5
v 4 0 -7
v 4 1 8
v 4 1 7
v 4 1 5
v 4 1 -1
v 4 1 -4
v 4 1 -5
v 4 1 -7
v 4 3 -3
v 4 3 -4
v 4 5 -0
v 4 5 -1
v 4 5 -2
v 4 5 -3
v 4 6 7
v 4 6 6
v 4 6 5
v 4 6 -0
v 4 6 -1
v 4 6 -2
v 4 8 6
v 4 8 5
v 4 10 5
v 4 10 -1
v 5 0 7
v 5 0 6
v 5 0 -2
v 5 0 -5
v 5 1 7
v 5 1 6
v 5 1 5
v 5 1 -1
v 5 1 -2
v 5 1 -5
v 5 5 -0
v 5 5 -1
v 5 6 5
v 5 6 -0
v 6 0 6
v 6 0 -2
v 6 1 6
v 6 1 -2
v -3 0 9
v -3 1 9
v -1 7 9
v -1 12 9
v 1 7 9
v 1 12 9
v 3 0 9
v 3 1 9
v -4 0 8
v -4 1 8
v -3 0 8
v -3 1 8
v -3 4 8
v -2 4 8
v -2 12 8
v -1 7 8
v -1 12 8
v -1 14 8
v 1 7 8
v 1 12 8
v 1 14 8
v 2 4 8
v 2 12 8
v 3 0 8
v 3 1 8
v 3 4 8
v 4 0 8
v 4 1 8
v -5 0 7
v -5 1 7
v -4 0 7
v -4 1 7
v -4 6 7
v -3 1 7
v -3 4 7
v -3 6 7
v -3 11 7
v -2 4 7
v -2 11 7
v -2 12 7
v -2 14 7
v -1 12 7
v -1 14 7
v 1 12 7
v 1 14 7
v 2 4 7
v 2 11 7
v 2 12 7
v 2 14 7
v 3 1 7
v 3 4 7
v 3 6 7
v 3 11 7
v 4 0 7
v 4 1 7
v 4 6 7
v 5 0 7
v 5 1 7
v -6 0 6
v -6 1 6
v -5 0 6
v -5 1 6
v -4 6 6
v -4 8 6
v -3 6 6
v -3 8 6
v 3 6 6
v 3 8 6
v 4 6 6
v 4 8 6
v 5 0 6
v 5 1 6
v 6 0 6
v 6 1 6
v -5 1 5
v -5 6 5
v -4 1 5
v -4 6 5
v -4 8 5
v -4 10 5
v -3 8 5
v -3 10 5
v 3 8 5
v 3 10 5
v 4 1 5
v 4 6 5
v 4 8 5
v 4 10 5
v 5 1 5
v 5 6 5
v -1 13 5
v -1 14 5
v 1 13 5
v 1 14 5
v -2 13 4
v -2 14 4
v -1 13 4
v -1 14 4
v 1 13 4
v 1 14 4
v 2 13 4
v 2 14 4
v -2 12 1
v -2 13 1
v 2 12 1
v 2 13 1
v -5 5 -0
v -5 6 -0
v -4 5 -0
v -4 6 -0
v -2 11 -0
v -2 12 -0
v -1 11 -0
v -1 12 -0
v 1 11 -0
v 1 12 -0
v 2 11 -0
v 2 12 -0
v 4 5 -0
v 4 6 -0
v 5 5 -0
v 5 6 -0
v -5 1 -1
v -5 5 -1
v -4 1 -1
v -4 5 -1
v -4 6 -1
v -4 10 -1
v -3 6 -1
v -3 10 -1
v -1 11 -1
v -1 12 -1
v 1 11 -1
v 1 12 -1
v 3 6 -1
v 3 10 -1
v 4 1 -1
v 4 5 -1
v 4 6 -1
v 4 10 -1
v 5 1 -1
v 5 5 -1
v -6 0 -2
v -6 1 -2
v -5 0 -2
v -5 1 -2
v -4 5 -2
v -4 6 -2
v -3 5 -2
v -3 6 -2
v -3 10 -2
v -3 11 -2
v -1 10 -2
v -1 11 -2
v 1 10 -2
v 1 11 -2
v 3 5 -2
v 3 6 -2
v 3 10 -2
v 3 11 -2
v 4 5 -2
v 4 6 -2
v 5 0 -2
v 5 1 -2
v 6 0 -2
v 6 1 -2
v -4 3 -3
v -4 5 -3
v -3 3 -3
v -3 5 -3
v -3 8 -3
v -3 10 -3
v -2 8 -3
v -2 10 -3
v -1 10 -3
v -1 11 -3
v 1 10 -3
v 1 11 -3
v 2 8 -3
v 2 10 -3
v 3 3 -3
v 3 5 -3
v 3 8 -3
v 3 10 -3
v 4 3 -3
v 4 5 -3
v -4 1 -4
v -4 3 -4
v -3 1 -4
v -3 2 -4
v -3 3 -4
v -3 8 -4
v -2 2 -4
v -2 6 -4
v -2 8 -4
v -2 10 -4
v -1 6 -4
v -1 8 -4
v 1 6 -4
v 1 8 -4
v 2 2 -4
v 2 6 -4
v 2 8 -4
v 2 10 -4
v 3 1 -4
v 3 2 -4
v 3 3 -4
v 3 8 -4
v 4 1 -4
v 4 3 -4
v -5 0 -5
v -5 1 -5
v -4 0 -5
v -4 1 -5
v -3 1 -5
v -3 2 -5
v -2 1 -5
v -2 2 -5
v -2 3 -5
v -2 6 -5
v -1 3 -5
v -1 6 -5
v -1 8 -5
v 1 3 -5
v 1 6 -5
v 1 8 -5
v 2 1 -5
v 2 2 -5
v 2 3 -5
v 2 6 -5
v 3 1 -5
v 3 2 -5
v 4 0 -5
v 4 1 -5
v 5 0 -5
v 5 1 -5
v -2 2 -6
v -2 3 -6
v -1 2 -6
v -1 3 -6
v -1 6 -6
v 1 2 -6
v 1 3 -6
v 1 6 -6
v 2 2 -6
v 2 3 -6
v -4 0 -7
v -4 1 -7
v -3 0 -7
v -3 1 -7
v -2 1 -7
v -2 2 -7
v -1 1 -7
v -1 2 -7
v -1 3 -7
v 1 1 -7
v 1 2 -7
v 1 3 -7
v 2 1 -7
v 2 2 -7
v 3 0 -7
v 3 1 -7
v 4 0 -7
v 4 1 -7
v -3 0 -8
v -3 1 -8
v -2 0 -8
v -2 1 -8
v -1 1 -8
v -1 2 -8
v 1 1 -8
v 1 2 -8
v 2 0 -8
v 2 1 -8
v 3 0 -8
v 3 1 -8
v -2 0 -9
v -2 1 -9
v 2 0 -9
v 2 1 -9
v -3 0 9
v 3 0 9
v -4 0 8
v -3 0 8
v 3 0 8
v 4 0 8
v -5 0 7
v -4 0 7
v 4 0 7
v 5 0 7
v -6 0 6
v -5 0 6
v -3 0 6
v -2 0 6
v 2 0 6
v 3 0 6
v 5 0 6
v 6 0 6
v -4 0 5
v -3 0 5
v -2 0 5
v -1 0 5
v 1 0 5
v 2 0 5
v 3 0 5
v 4 0 5
v -4 0 1
v -3 0 1
v -2 0 1
v -1 0 1
v 1 0 1
v 2 0 1
v 3 0 1
v 4 0 1
v -3 0 -0
v -2 0 -0
v 2 0 -0
v 3 0 -0
v -6 0 -2
v -5 0 -2
v 5 0 -2
v 6 0 -2
v -5 0 -5
v -4 0 -5
v 4 0 -5
v 5 0 -5
v -4 0 -7
v -3 0 -7
v 3 0 -7
v 4 0 -7
v -3 0 -8
v -2 0 -8
v 2 0 -8
v 3 0 -8
v -2 0 -9
v 2 0 -9
v -1 7 9
v 1 7 9
v -1 7 8
v 1 7 8
v -3 1 9
v 3 1 9
v -4 1 8
v -3 1 8
v 3 1 8
v 4 1 8
v -5 1 7
v -4 1 7
v -3 1 7
v 3 1 7
v 4 1 7
v 5 1 7
v -6 1 6
v -5 1 6
v 5 1 6
v 6 1 6
v -5 1 5
v -4 1 5
v 4 1 5
v 5 1 5
v -5 1 -1
v -4 1 -1
v 4 1 -1
v 5 1 -1
v -6 1 -2
v -5 1 -2
v 5 1 -2
v 6 1 -2
v -4 1 -4
v -3 1 -4
v 3 1 -4
v 4 1 -4
v -5 1 -5
v -4 1 -5
v -3 1 -5
v -2 1 -5
v 2 1 -5
v 3 1 -5
v 4 1 -5
v 5 1 -5
v -4 1 -7
v -3 1 -7
v -2 1 -7
v -1 1 -7
v 1 1 -7
v 2 1 -7
v 3 1 -7
v 4 1 -7
v -3 1 -8
v -2 1 -8
v -1 1 -8
v 1 1 -8
v 2 1 -8
v 3 1 -8
v -2 1 -9
v 2 1 -9
v -3 2 -4
v -2 2 -4
v 2 2 -4
v 3 2 -4
v -3 2 -5
v -2 2 -5
v 2 2 -5
v 3 2 -5
v -2 2 -6
v -1 2 -6
v 1 2 -6
v 2 2 -6
v -2 2 -7
v -1 2 -7
v 1 2 -7
v 2 2 -7
v -1 2 -8
v 1 2 -8
v -4 3 -3
v -3 3 -3
v 3 3 -3
v 4 3 -3
v -4 3 -4
v -3 3 -4
v 3 3 -4
v 4 3 -4
v -2 3 -5
v -1 3 -5
v 1 3 -5
v 2 3 -5
v -2 3 -6
v -1 3 -6
v 1 3 -6
v 2 3 -6
v -1 3 -7
v 1 3 -7
v -3 4 8
v -2 4 8
v 2 4 8
v 3 4 8
v -3 4 7
v -2 4 7
v 2 4 7
v 3 4 7
v -5 5 -0
v -4 5 -0
v 4 5 -0
v 5 5 -0
v -5 5 -1
v -4 5 -1
v 4 5 -1
v 5 5 -1
v -4 5 -2
v -3 5 -2
v 3 5 -2
v 4 5 -2
v -4 5 -3
v -3 5 -3
v 3 5 -3
v 4 5 -3
v -4 6 7
v -3 6 7
v 3 6 7
v 4 6 7
v -4 6 6
v -3 6 6
v 3 6 6
v 4 6 6
v -5 6 5
v -4 6 5
v 4 6 5
v 5 6 5
v -5 6 -0
v -4 6 -0
v 4 6 -0
v 5 6 -0
v -4 6 -1
v -3 6 -1
v 3 6 -1
v 4 6 -1
v -4 6 -2
v -3 6 -2
v 3 6 -2
v 4 6 -2
v -2 6 -4
v -1 6 -4
v 1 6 -4
v 2 6 -4
v -2 6 -5
v -1 6 -5
v 1 6 -5
v 2 6 -5
v -1 6 -6
v 1 6 -6
v -4 8 6
v -3 8 6
v 3 8 6
v 4 8 6
v -4 8 5
v -3 8 5
v 3 8 5
v 4 8 5
v -3 8 -3
v -2 8 -3
v 2 8 -3
v 3 8 -3
v -3 8 -4
v -2 8 -4
v -1 8 -4
v 1 8 -4
v 2 8 -4
v 3 8 -4
v -1 8 -5
v 1 8 -5
v -4 10 5
v -3 10 5
v 3 10 5
v 4 10 5
v -4 10 -1
v -3 10 -1
v 3 10 -1
v 4 10 -1
v -3 10 -2
v -1 10 -2
v 1 10 -2
v 3 10 -2
v -3 10 -3
v -2 10 -3
v -1 10 -3
v 1 10 -3
v 2 10 -3
v 3 10 -3
v -2 10 -4
v 2 10 -4
v -3 11 7
v -2 11 7
v 2 11 7
v 3 11 7
v -2 11 -0
v -1 11 -0
v 1 11 -0
v 2 11 -0
v -1 11 -1
v 1 11 -1
v -3 11 -2
v -1 11 -2
v 1 11 -2
v 3 11 -2
v -1 11 -3
v 1 11 -3
v -1 12 9
v 1 12 9
v -2 12 8
v -1 12 8
v 1 12 8
v 2 12 8
v -2 12 7
v -1 12 7
v 1 12 7
v 2 12 7
v -2 12 1
v 2 12 1
v -2 12 -0
v -1 12 -0
v 1 12 -0
v 2 12 -0
v -1 12 -1
v 1 12 -1
v -1 13 5
v 1 13 5
v -2 13 4
v -1 13 4
v 1 13 4
v 2 13 4
v -2 13 1
v 2 13 1
v -1 14 8
v 1 14 8
v -2 14 7
v -1 14 7
v 1 14 7
v 2 14 7
v -1 14 5
v 1 14 5
v -2 14 4
v -1 14 4
v 1 14 4
v 2 14 4

# faces
f 3/3/1 2/3/1 1/3/1
f 4/3/1 2/3/1 3/3/1
f 9/3/1 6/3/1 5/3/1
f 10/3/1 6/3/1 9/3/1
f 13/3/1 8/3/1 7/3/1
f 14/3/1 8/3/1 13/3/1
f 15/3/1 12/3/1 11/3/1
f 16/3/1 12/3/1 15/3/1
f 17/3/1 15/3/1 11/3/1
f 18/3/1 15/3/1 17/3/1
f 23/3/1 20/3/1 19/3/1
f 24/3/1 20/3/1 23/3/1
f 28/3/1 22/3/1 21/3/1
f 29/3/1 22/3/1 28/3/1
f 30/3/1 27/3/1 26/3/1
f 31/3/1 27/3/1 30/3/1
f 33/3/1 30/3/1 26/3/1
f 34/3/1 30/3/1 33/3/1
f 35/3/1 30/3/1 34/3/1
f 36/3/1 25/3/1 24/3/1
f 37/3/1 25/3/1 36/3/1
f 38/3/1 25/3/1 37/3/1
f 39/3/1 33/3/1 32/3/1
f 39/3/1 34/3/1 33/3/1
f 40/3/1 34/3/1 39/3/1
f 41/3/1 34/3/1 40/3/1
f 42/3/1 38/3/1 37/3/1
f 42/3/1 40/3/1 39/3/1
f 42/3/1 39/3/1 38/3/1
f 43/3/1 40/3/1 42/3/1
f 44/3/1 40/3/1 43/3/1
f 45/3/1 40/3/1 44/3/1
f 50/3/1 47/3/1 46/3/1
f 51/3/1 47/3/1 50/3/1
f 55/3/1 49/3/1 48/3/1
f 56/3/1 49/3/1 55/3/1
f 57/3/1 54/3/1 53/3/1
f 58/3/1 54/3/1 57/3/1
f 61/3/1 52/3/1 51/3/1
f 62/3/1 52/3/1 61/3/1
f 64/3/1 60/3/1 59/3/1
f 68/3/1 64/3/1 63/3/1
f 69/3/1 66/3/1 65/3/1
f 71/3/1 60/3/1 64/3/1
f 71/3/1 68/3/1 67/3/1
f 71/3/1 64/3/1 68/3/1
f 72/3/1 60/3/1 71/3/1
f 73/3/1 70/3/1 69/3/1
f 74/3/1 71/3/1 67/3/1
f 75/3/1 71/3/1 74/3/1
f 76/3/1 71/3/1 75/3/1
f 77/3/1 69/3/1 65/3/1
f 77/3/1 73/3/1 69/3/1
f 77/3/1 75/3/1 74/3/1
f 77/3/1 74/3/1 73/3/1
f 78/3/1 75/3/1 77/3/1
f 83/3/1 80/3/1 79/3/1
f 84/3/1 80/3/1 83/3/1
f 86/3/1 82/3/1 81/3/1
f 87/3/1 82/3/1 86/3/1
f 88/3/1 82/3/1 87/3/1
f 89/3/1 86/3/1 85/3/1
f 89/3/1 87/3/1 86/3/1
f 90/3/1 87/3/1 89/3/1
f 93/3/1 89/3/1 85/3/1
f 94/3/1 89/3/1 93/3/1
f 97/3/1 96/3/1 95/3/1
f 98/3/1 96/3/1 97/3/1
f 99/3/1 92/3/1 91/3/1
f 101/3/1 99/3/1 91/3/1
f 101/3/1 100/3/1 99/3/1
f 102/3/1 100/3/1 101/3/1
f 103/3/1 100/3/1 102/3/1
f 104/3/1 100/3/1 103/3/1
f 105/1/1 103/1/1 102/1/1
f 106/1/1 103/1/1 105/1/1
f 107/1/1 105/1/1 102/1/1
f 108/1/1 105/1/1 107/1/1
f 112/3/1 110/3/1 109/3/1
f 113/3/1 110/3/1 112/3/1
f 115/3/1 112/3/1 111/3/1
f 116/3/1 112/3/1 115/3/1
f 118/3/1 115/3/1 114/3/1
f 119/3/1 115/3/1 118/3/1
f 122/3/1 118/3/1 117/3/1
f 123/3/1 118/3/1 122/3/1
f 128/3/1 125/3/1 124/3/1
f 129/3/1 125/3/1 128/3/1
f 130/1/1 121/1/1 120/1/1
f 131/1/1 121/1/1 130/1/1
f 133/3/1 127/3/1 126/3/1
f 134/3/1 127/3/1 133/3/1
f 135/1/1 132/1/1 131/1/1
f 136/1/1 132/1/1 135/1/1
f 139/1/1 138/1/1 137/1/1
f 140/1/1 138/1/1 139/1/1
f 141/1/2 142/1/2 143/1/2
f 143/1/2 142/1/2 144/1/2
f 145/3/2 146/3/2 148/3/2
f 148/3/2 146/3/2 149/3/2
f 147/3/2 148/3/2 151/3/2
f 151/3/2 148/3/2 152/3/2
f 150/3/2 151/3/2 154/3/2
f 154/3/2 151/3/2 155/3/2
f 153/3/2 154/3/2 158/3/2
f 158/3/2 154/3/2 159/3/2
f 160/3/2 161/3/2 164/3/2
f 164/3/2 161/3/2 165/3/2
f 156/1/2 157/1/2 166/1/2
f 166/1/2 157/1/2 167/1/2
f 162/3/2 163/3/2 169/3/2
f 169/3/2 163/3/2 170/3/2
f 167/1/2 168/1/2 171/1/2
f 171/1/2 168/1/2 172/1/2
f 173/3/2 174/3/2 177/3/2
f 177/3/2 174/3/2 178/3/2
f 175/3/2 176/3/2 180/3/2
f 180/3/2 176/3/2 181/3/2
f 181/3/2 176/3/2 182/3/2
f 179/3/2 180/3/2 183/3/2
f 180/3/2 181/3/2 183/3/2
f 183/3/2 181/3/2 184/3/2
f 179/3/2 183/3/2 187/3/2
f 187/3/2 183/3/2 188/3/2
f 189/3/2 190/3/2 191/3/2
f 191/3/2 190/3/2 192/3/2
f 185/3/2 186/3/2 193/3/2
f 185/3/2 193/3/2 195/3/2
f 193/3/2 194/3/2 195/3/2
f 195/3/2 194/3/2 196/3/2
f 196/3/2 194/3/2 197/3/2
f 197/3/2 194/3/2 198/3/2
f 196/1/2 197/1/2 199/1/2
f 199/1/2 197/1/2 200/1/2
f 196/1/2 199/1/2 201/1/2
f 201/1/2 199/1/2 202/1/2
f 203/3/2 204/3/2 207/3/2
f 207/3/2 204/3/2 208/3/2
f 205/3/2 206/3/2 212/3/2
f 212/3/2 206/3/2 213/3/2
f 210/3/2 211/3/2 214/3/2
f 214/3/2 211/3/2 215/3/2
f 208/3/2 209/3/2 218/3/2
f 218/3/2 209/3/2 219/3/2
f 216/3/2 217/3/2 221/3/2
f 220/3/2 221/3/2 225/3/2
f 222/3/2 223/3/2 226/3/2
f 221/3/2 217/3/2 228/3/2
f 224/3/2 225/3/2 228/3/2
f 225/3/2 221/3/2 228/3/2
f 228/3/2 217/3/2 229/3/2
f 226/3/2 227/3/2 230/3/2
f 224/3/2 228/3/2 231/3/2
f 231/3/2 228/3/2 232/3/2
f 232/3/2 228/3/2 233/3/2
f 222/3/2 226/3/2 234/3/2
f 226/3/2 230/3/2 234/3/2
f 231/3/2 232/3/2 234/3/2
f 230/3/2 231/3/2 234/3/2
f 234/3/2 232/3/2 235/3/2
f 236/3/2 237/3/2 240/3/2
f 240/3/2 237/3/2 241/3/2
f 238/3/2 239/3/2 245/3/2
f 245/3/2 239/3/2 246/3/2
f 243/3/2 244/3/2 247/3/2
f 247/3/2 244/3/2 248/3/2
f 243/3/2 247/3/2 250/3/2
f 250/3/2 247/3/2 251/3/2
f 251/3/2 247/3/2 252/3/2
f 241/3/2 242/3/2 253/3/2
f 253/3/2 242/3/2 254/3/2
f 254/3/2 242/3/2 255/3/2
f 249/3/2 250/3/2 256/3/2
f 250/3/2 251/3/2 256/3/2
f 256/3/2 251/3/2 257/3/2
f 257/3/2 251/3/2 258/3/2
f 254/3/2 255/3/2 259/3/2
f 256/3/2 257/3/2 259/3/2
f 255/3/2 256/3/2 259/3/2
f 259/3/2 257/3/2 260/3/2
f 260/3/2 257/3/2 261/3/2
f 261/3/2 257/3/2 262/3/2
f 263/3/2 264/3/2 267/3/2
f 267/3/2 264/3/2 268/3/2
f 265/3/2 266/3/2 271/3/2
f 271/3/2 266/3/2 272/3/2
f 269/3/2 270/3/2 273/3/2
f 273/3/2 270/3/2 274/3/2
f 269/3/2 273/3/2 275/3/2
f 275/3/2 273/3/2 276/3/2
f 277/3/2 278/3/2 279/3/2
f 279/3/2 278/3/2 280/3/2
f 285/1/3 284/1/3 283/1/3
f 286/1/3 284/1/3 285/1/3
f 287/3/3 282/3/3 281/3/3
f 288/3/3 282/3/3 287/3/3
f 291/3/3 290/3/3 289/3/3
f 292/3/3 290/3/3 291/3/3
f 294/3/3 293/3/3 292/3/3
f 296/3/3 295/3/3 294/3/3
f 297/3/3 295/3/3 296/3/3
f 299/3/3 296/3/3 294/3/3
f 300/1/3 298/1/3 297/1/3
f 301/1/3 298/1/3 300/1/3
f 302/3/3 294/3/3 292/3/3
f 302/3/3 299/3/3 294/3/3
f 302/3/3 300/3/3 299/3/3
f 303/3/3 300/3/3 302/3/3
f 305/3/3 302/3/3 292/3/3
f 306/3/3 302/3/3 305/3/3
f 307/3/3 305/3/3 304/3/3
f 308/3/3 305/3/3 307/3/3
f 311/3/3 310/3/3 309/3/3
f 312/3/3 310/3/3 311/3/3
f 314/3/3 313/3/3 312/3/3
f 315/3/3 313/3/3 314/3/3
f 316/3/3 313/3/3 315/3/3
f 318/3/3 317/3/3 316/3/3
f 318/3/3 316/3/3 315/3/3
f 319/3/3 317/3/3 318/3/3
f 322/1/3 321/1/3 320/1/3
f 323/1/3 321/1/3 322/1/3
f 328/1/3 325/1/3 324/1/3
f 329/1/3 325/1/3 328/1/3
f 331/3/3 327/3/3 326/3/3
f 332/3/3 327/3/3 331/3/3
f 333/3/3 327/3/3 332/3/3
f 335/3/3 331/3/3 330/3/3
f 335/3/3 332/3/3 331/3/3
f 336/3/3 332/3/3 335/3/3
f 337/3/3 335/3/3 334/3/3
f 338/3/3 335/3/3 337/3/3
f 341/3/3 340/3/3 339/3/3
f 342/3/3 340/3/3 341/3/3
f 345/3/3 344/3/3 343/3/3
f 346/3/3 344/3/3 345/3/3
f 349/3/3 348/3/3 347/3/3
f 350/3/3 348/3/3 349/3/3
f 353/3/3 352/3/3 351/3/3
f 354/3/3 352/3/3 353/3/3
f 357/3/3 356/3/3 355/3/3
f 358/3/3 356/3/3 357/3/3
f 361/3/3 360/3/3 359/3/3
f 362/3/3 360/3/3 361/3/3
f 367/3/3 364/3/3 363/3/3
f 368/3/3 364/3/3 367/3/3
f 369/3/3 366/3/3 365/3/3
f 370/3/3 366/3/3 369/3/3
f 371/1/4 372/1/4 373/1/4
f 373/1/4 372/1/4 374/1/4
f 375/1/4 376/1/4 377/1/4
f 377/1/4 376/1/4 378/1/4
f 379/1/4 380/1/4 381/1/4
f 381/1/4 380/1/4 382/1/4
f 383/1/4 384/1/4 385/1/4
f 385/1/4 384/1/4 386/1/4
f 387/3/4 388/3/4 389/3/4
f 389/3/4 388/3/4 390/3/4
f 391/3/4 392/3/4 393/3/4
f 393/3/4 392/3/4 394/3/4
f 395/3/4 396/3/4 397/3/4
f 397/3/4 396/3/4 398/3/4
f 399/3/4 400/3/4 401/3/4
f 401/3/4 400/3/4 402/3/4
f 403/3/4 404/3/4 405/3/4
f 405/3/4 404/3/4 406/3/4
f 407/3/4 408/3/4 409/3/4
f 409/3/4 408/3/4 410/3/4
f 411/3/4 412/3/4 413/3/4
f 413/3/4 412/3/4 414/3/4
f 415/3/4 416/3/4 419/3/4
f 419/3/4 416/3/4 420/3/4
f 417/3/4 418/3/4 421/3/4
f 421/3/4 418/3/4 422/3/4
f 423/3/4 424/3/4 425/3/4
f 425/3/4 424/3/4 426/3/4
f 427/3/4 428/3/4 429/3/4
f 429/3/4 428/3/4 430/3/4
f 431/3/4 432/3/4 433/3/4
f 433/3/4 432/3/4 434/3/4
f 435/3/4 436/3/4 439/3/4
f 439/3/4 436/3/4 440/3/4
f 437/3/4 438/3/4 441/3/4
f 441/3/4 438/3/4 442/3/4
f 443/3/4 444/3/4 445/3/4
f 445/3/4 444/3/4 446/3/4
f 447/3/4 448/3/4 449/3/4
f 449/3/4 448/3/4 450/3/4
f 451/3/4 452/3/4 453/3/4
f 453/3/4 452/3/4 454/3/4
f 455/3/4 456/3/4 457/3/4
f 457/3/4 456/3/4 458/3/4
f 459/3/4 460/3/4 463/3/4
f 463/3/4 460/3/4 464/3/4
f 461/3/4 462/3/4 465/3/4
f 465/3/4 462/3/4 466/3/4
f 467/3/4 468/3/4 469/3/4
f 469/3/4 468/3/4 470/3/4
f 470/3/4 468/3/4 471/3/4
f 471/3/4 472/3/4 473/3/4
f 470/3/4 471/3/4 473/3/4
f 473/3/4 472/3/4 474/3/4
f 474/3/4 472/3/4 475/3/4
f 475/3/4 476/3/4 477/3/4
f 474/3/4 475/3/4 477/3/4
f 477/3/4 476/3/4 478/3/4
f 478/3/4 476/3/4 480/3/4
f 479/3/4 480/3/4 482/3/4
f 480/3/4 476/3/4 483/3/4
f 482/3/4 480/3/4 483/3/4
f 483/3/4 476/3/4 484/3/4
f 481/3/4 482/3/4 486/3/4
f 482/3/4 483/3/4 486/3/4
f 486/3/4 483/3/4 487/3/4
f 487/3/4 483/3/4 488/3/4
f 485/3/4 486/3/4 489/3/4
f 486/3/4 487/3/4 489/3/4
f 489/3/4 487/3/4 490/3/4
f 491/3/4 492/3/4 493/3/4
f 493/3/4 492/3/4 494/3/4
f 495/3/4 496/3/4 497/3/4
f 497/3/4 496/3/4 498/3/4
f 499/3/4 500/3/4 501/3/4
f 501/3/4 500/3/4 502/3/4
f 502/3/4 503/3/4 505/3/4
f 505/3/4 503/3/4 506/3/4
f 504/3/4 505/3/4 509/3/4
f 509/3/4 505/3/4 510/3/4
f 507/3/4 508/3/4 511/3/4
f 511/3/4 508/3/4 512/3/4
f 513/3/4 514/3/4 515/3/4
f 515/3/4 514/3/4 516/3/4
f 517/3/4 518/3/4 519/3/4
f 519/3/4 518/3/4 520/3/4
f 520/3/4 521/3/4 523/3/4
f 523/3/4 521/3/4 524/3/4
f 522/3/4 523/3/4 525/3/4
f 525/3/4 523/3/4 526/3/4
f 527/3/4 528/3/4 529/3/4
f 529/3/4 528/3/4 530/3/4
f 531/3/4 532/3/4 533/3/4
f 533/3/4 532/3/4 534/3/4
f 534/3/4 535/3/4 537/3/4
f 537/3/4 535/3/4 538/3/4
f 536/3/4 537/3/4 539/3/4
f 539/3/4 537/3/4 540/3/4
f 541/3/4 542/3/4 543/3/4
f 543/3/4 542/3/4 544/3/4
f 545/3/4 546/3/4 547/3/4
f 547/3/4 546/3/4 548/3/4
f 549/3/4 550/3/4 551/3/4
f 551/3/4 550/3/4 552/3/4
f 553/3/4 554/3/4 555/3/4
f 555/3/4 554/3/4 556/3/4
f 557/3/4 558/3/4 559/3/4
f 559/3/4 558/3/4 560/3/4
f 564/3/5 562/3/5 561/3/5
f 565/3/5 562/3/5 564/3/5
f 568/3/5 564/3/5 563/3/5
f 568/3/5 566/3/5 565/3/5
f 568/3/5 565/3/5 564/3/5
f 569/3/5 566/3/5 568/3/5
f 572/3/5 568/3/5 567/3/5
f 572/3/5 570/3/5 569/3/5
f 572/3/5 569/3/5 568/3/5
f 573/3/5 570/3/5 572/3/5
f 574/3/5 570/3/5 573/3/5
f 575/3/5 570/3/5 574/3/5
f 576/3/5 570/3/5 575/3/5
f 577/3/5 570/3/5 576/3/5
f 579/3/5 572/3/5 571/3/5
f 579/3/5 573/3/5 572/3/5
f 580/2/5 574/2/5 573/2/5
f 580/3/5 573/3/5 579/3/5
f 581/3/5 575/3/5 574/3/5
f 581/2/5 574/2/5 580/2/5
f 582/3/5 575/3/5 581/3/5
f 583/3/5 575/3/5 582/3/5
f 584/2/5 576/2/5 575/2/5
f 584/3/5 575/3/5 583/3/5
f 585/3/5 578/3/5 577/3/5
f 585/2/5 576/2/5 584/2/5
f 585/3/5 577/3/5 576/3/5
f 586/3/5 578/3/5 585/3/5
f 587/2/5 582/2/5 581/2/5
f 587/3/5 579/3/5 571/3/5
f 587/2/5 580/2/5 579/2/5
f 587/2/5 581/2/5 580/2/5
f 588/2/5 582/2/5 587/2/5
f 589/2/5 582/2/5 588/2/5
f 590/3/5 583/3/5 582/3/5
f 590/2/5 582/2/5 589/2/5
f 591/2/5 584/2/5 583/2/5
f 591/3/5 583/3/5 590/3/5
f 591/2/5 586/2/5 585/2/5
f 591/2/5 585/2/5 584/2/5
f 592/2/5 586/2/5 591/2/5
f 593/2/5 586/2/5 592/2/5
f 594/3/5 578/3/5 586/3/5
f 594/2/5 586/2/5 593/2/5
f 595/3/5 588/3/5 587/3/5
f 595/2/5 589/2/5 588/2/5
f 596/3/5 590/3/5 589/3/5
f 596/2/5 589/2/5 595/2/5
f 596/3/5 591/3/5 590/3/5
f 596/3/5 592/3/5 591/3/5
f 597/2/5 593/2/5 592/2/5
f 597/3/5 592/3/5 596/3/5
f 598/3/5 594/3/5 593/3/5
f 598/2/5 593/2/5 597/2/5
f 599/3/5 595/3/5 587/3/5
f 599/3/5 596/3/5 595/3/5
f 599/3/5 598/3/5 597/3/5
f 599/3/5 597/3/5 596/3/5
f 599/3/5 587/3/5 571/3/5
f 600/3/5 598/3/5 599/3/5
f 601/3/5 594/3/5 598/3/5
f 601/3/5 598/3/5 600/3/5
f 601/3/5 578/3/5 594/3/5
f 602/3/5 578/3/5 601/3/5
f 603/3/5 601/3/5 600/3/5
f 604/3/5 601/3/5 603/3/5
f 605/3/5 601/3/5 604/3/5
f 606/3/5 601/3/5 605/3/5
f 607/3/5 605/3/5 604/3/5
f 608/3/5 605/3/5 607/3/5
f 609/3/5 605/3/5 608/3/5
f 610/3/5 605/3/5 609/3/5
f 611/3/5 609/3/5 608/3/5
f 612/3/5 609/3/5 611/3/5
f 613/3/5 609/3/5 612/3/5
f 614/3/5 609/3/5 613/3/5
f 615/3/5 613/3/5 612/3/5
f 616/3/5 613/3/5 615/3/5
f 619/1/5 618/1/5 617/1/5
f 620/1/5 618/1/5 619/1/5
f 621/3/6 622/3/6 624/3/6
f 624/3/6 622/3/6 625/3/6
f 623/3/6 624/3/6 628/3/6
f 628/3/6 624/3/6 629/3/6
f 625/3/6 626/3/6 630/3/6
f 630/3/6 626/3/6 631/3/6
f 627/3/6 628/3/6 634/3/6
f 631/3/6 632/3/6 635/3/6
f 633/3/6 634/3/6 637/3/6
f 634/3/6 628/3/6 637/3/6
f 637/3/6 628/3/6 638/3/6
f 635/3/6 636/3/6 639/3/6
f 631/3/6 635/3/6 639/3/6
f 639/3/6 636/3/6 640/3/6
f 633/3/6 637/3/6 641/3/6
f 640/3/6 636/3/6 644/3/6
f 641/3/6 642/3/6 645/3/6
f 633/3/6 641/3/6 645/3/6
f 645/3/6 642/3/6 646/3/6
f 643/3/6 644/3/6 647/3/6
f 644/3/6 636/3/6 647/3/6
f 647/3/6 636/3/6 648/3/6
f 646/3/6 642/3/6 649/3/6
f 643/3/6 647/3/6 652/3/6
f 649/3/6 650/3/6 653/3/6
f 646/3/6 649/3/6 653/3/6
f 653/3/6 650/3/6 654/3/6
f 654/3/6 650/3/6 655/3/6
f 651/3/6 652/3/6 658/3/6
f 652/3/6 647/3/6 659/3/6
f 658/3/6 652/3/6 659/3/6
f 659/3/6 647/3/6 660/3/6
f 655/3/6 656/3/6 661/3/6
f 654/3/6 655/3/6 661/3/6
f 661/3/6 656/3/6 662/3/6
f 662/3/6 656/3/6 663/3/6
f 657/3/6 658/3/6 666/3/6
f 658/3/6 659/3/6 666/3/6
f 666/3/6 659/3/6 667/3/6
f 667/3/6 659/3/6 668/3/6
f 663/3/6 664/3/6 669/3/6
f 662/3/6 663/3/6 669/3/6
f 669/3/6 664/3/6 670/3/6
f 670/3/6 664/3/6 671/3/6
f 666/3/6 667/3/6 672/3/6
f 665/3/6 666/3/6 672/3/6
f 672/3/6 667/3/6 673/3/6
f 673/3/6 667/3/6 674/3/6
f 670/3/6 671/3/6 675/3/6
f 672/3/6 673/3/6 675/3/6
f 671/3/6 672/3/6 675/3/6
f 675/3/6 673/3/6 676/3/6
f 677/3/6 678/3/6 681/3/6
f 681/3/6 678/3/6 682/3/6
f 679/3/6 680/3/6 683/3/6
f 683/3/6 680/3/6 684/3/6
f 685/3/6 686/3/6 689/3/6
f 689/3/6 686/3/6 690/3/6
f 687/3/6 688/3/6 691/3/6
f 691/3/6 688/3/6 692/3/6
f 690/3/6 691/3/6 693/3/6
f 693/3/6 691/3/6 694/3/6
f 695/3/6 696/3/6 699/3/6
f 699/3/6 696/3/6 700/3/6
f 697/3/6 698/3/6 701/3/6
f 701/3/6 698/3/6 702/3/6
f 703/3/6 704/3/6 707/3/6
f 707/3/6 704/3/6 708/3/6
f 705/3/6 706/3/6 709/3/6
f 709/3/6 706/3/6 710/3/6
f 708/3/6 709/3/6 711/3/6
f 711/3/6 709/3/6 712/3/6
f 713/3/6 714/3/6 717/3/6
f 717/3/6 714/3/6 718/3/6
f 715/3/6 716/3/6 719/3/6
f 719/3/6 716/3/6 720/3/6
f 721/3/6 722/3/6 725/3/6
f 725/3/6 722/3/6 726/3/6
f 723/3/6 724/3/6 727/3/6
f 727/3/6 724/3/6 728/3/6
f 729/3/6 730/3/6 733/3/6
f 733/3/6 730/3/6 734/3/6
f 731/3/6 732/3/6 735/3/6
f 735/3/6 732/3/6 736/3/6
f 737/3/6 738/3/6 741/3/6
f 741/3/6 738/3/6 742/3/6
f 739/3/6 740/3/6 743/3/6
f 743/3/6 740/3/6 744/3/6
f 745/3/6 746/3/6 749/3/6
f 749/3/6 746/3/6 750/3/6
f 747/3/6 748/3/6 751/3/6
f 751/3/6 748/3/6 752/3/6
f 753/3/6 754/3/6 757/3/6
f 757/3/6 754/3/6 758/3/6
f 755/3/6 756/3/6 759/3/6
f 759/3/6 756/3/6 760/3/6
f 761/3/6 762/3/6 765/3/6
f 765/3/6 762/3/6 766/3/6
f 763/3/6 764/3/6 767/3/6
f 767/3/6 764/3/6 768/3/6
f 766/3/6 767/3/6 769/3/6
f 769/3/6 767/3/6 770/3/6
f 771/3/6 772/3/6 775/3/6
f 775/3/6 772/3/6 776/3/6
f 773/3/6 774/3/6 777/3/6
f 777/3/6 774/3/6 778/3/6
f 779/3/6 780/3/6 783/3/6
f 783/3/6 780/3/6 784/3/6
f 781/3/6 782/3/6 787/3/6
f 787/3/6 782/3/6 788/3/6
f 785/3/6 786/3/6 789/3/6
f 789/3/6 786/3/6 790/3/6
f 791/3/6 792/3/6 795/3/6
f 795/3/6 792/3/6 796/3/6
f 793/3/6 794/3/6 797/3/6
f 797/3/6 794/3/6 798/3/6
f 799/3/6 800/3/6 803/3/6
f 803/3/6 800/3/6 804/3/6
f 804/3/6 800/3/6 805/3/6
f 801/3/6 802/3/6 806/3/6
f 806/3/6 802/3/6 807/3/6
f 807/3/6 802/3/6 808/3/6
f 804/3/6 805/3/6 809/3/6
f 806/3/6 807/3/6 809/3/6
f 805/3/6 806/3/6 809/3/6
f 809/3/6 807/3/6 810/3/6
f 811/3/6 812/3/6 815/3/6
f 813/3/6 814/3/6 818/3/6
f 815/3/6 816/3/6 819/3/6
f 817/3/6 818/3/6 820/3/6
f 815/3/6 819/3/6 821/3/6
f 819/3/6 820/3/6 821/3/6
f 811/3/6 815/3/6 821/3/6
f 821/3/6 820/3/6 822/3/6
f 820/3/6 818/3/6 823/3/6
f 822/3/6 820/3/6 823/3/6
f 818/3/6 814/3/6 824/3/6
f 823/3/6 818/3/6 824/3/6
f 822/3/6 823/3/6 825/3/6
f 825/3/6 823/3/6 826/3/6
f 827/1/6 828/1/6 830/1/6
f 830/1/6 828/1/6 831/1/6
f 829/3/6 830/3/6 833/3/6
f 833/3/6 830/3/6 834/3/6
f 831/3/6 832/3/6 835/3/6
f 835/3/6 832/3/6 836/3/6
f 837/3/6 838/3/6 839/3/6
f 839/3/6 838/3/6 840/3/6
f 840/3/6 838/3/6 841/3/6
f 841/3/6 838/3/6 842/3/6
f 840/3/6 841/3/6 843/3/6
f 843/3/6 841/3/6 844/3/6
f 845/1/6 846/1/6 848/1/6
f 848/1/6 846/1/6 849/1/6
f 847/1/6 848/1/6 851/1/6
f 849/1/6 850/1/6 851/1/6
f 848/1/6 849/1/6 851/1/6
f 851/1/6 850/1/6 852/1/6
f 853/1/6 854/1/6 856/1/6
f 856/1/6 854/1/6 857/1/6
f 855/1/6 856/1/6 859/1/6
f 857/1/6 858/1/6 859/1/6
f 856/1/6 857/1/6 859/1/6
f 859/1/6 858/1/6 860/1/6
f 855/1/6 859/1/6 861/1/6
f 861/1/6 859/1/6 862/1/6
f 860/1/6 858/1/6 863/1/6
f 863/1/6 858/1/6 864/1/6
