# MagicaVoxel @ Ephtracy

# group
g Tojam Goat

# material
mtllib Tojam Goat.mtl
usemtl palette

# normals
vn -1 0 0
vn 1 0 0
vn 0 0 1
vn 0 0 -1
vn 0 -1 0
vn 0 1 0

# texcoords
vt 0.00976563 0.5
vt 0.341797 0.5
vt 0.369141 0.5
vt 0.978516 0.5

# verts
v -5.5 12 1
v -5.5 12 -1
v -5.5 13 1
v -5.5 13 -1
v -4.5 13 1
v -4.5 13 -1
v -4.5 14 1
v -4.5 14 -1
v -3.5 11 1
v -3.5 11 -1
v -3.5 12 1
v -3.5 12 -1
v -3.5 13 2
v -3.5 13 1
v -3.5 13 -1
v -3.5 13 -2
v -3.5 14 1
v -3.5 14 -1
v -3.5 15 2
v -3.5 15 1
v -3.5 15 -1
v -3.5 15 -2
v -2.5 10 1
v -2.5 10 -1
v -2.5 11 1
v -2.5 11 -1
v -2.5 15 2
v -2.5 15 1
v -2.5 15 -1
v -2.5 15 -2
v -2.5 16 2
v -2.5 16 1
v -2.5 16 -1
v -2.5 16 -2
v -1.5 8 2
v -1.5 8 1
v -1.5 8 -1
v -1.5 8 -2
v -1.5 9 1
v -1.5 9 -1
v -1.5 10 1
v -1.5 10 -1
v -1.5 11 2
v -1.5 11 1
v -1.5 11 -1
v -1.5 11 -2
v -0.5 6 2
v -0.5 6 -2
v -0.5 7 2
v -0.5 7 1
v -0.5 7 -1
v -0.5 7 -2
v -0.5 8 2
v -0.5 8 1
v -0.5 8 -1
v -0.5 8 -2
v -0.5 12 1
v -0.5 12 -1
v -0.5 13 1
v -0.5 13 -1
v 0.5 0 1
v 0.5 0 -1
v 0.5 6 1
v 0.5 6 -1
v 1.5 9 2
v 1.5 9 1
v 1.5 9 -1
v 1.5 9 -2
v 1.5 11 2
v 1.5 11 1
v 1.5 11 -1
v 1.5 11 -2
v 2.5 7 2
v 2.5 7 1
v 2.5 7 -1
v 2.5 7 -2
v 2.5 9 2
v 2.5 9 1
v 2.5 9 -1
v 2.5 9 -2
v -2.5 13 2
v -2.5 13 1
v -2.5 13 -1
v -2.5 13 -2
v -2.5 14 2
v -2.5 14 1
v -2.5 14 -1
v -2.5 14 -2
v -1.5 12 1
v -1.5 12 -1
v -1.5 13 1
v -1.5 13 -1
v -1.5 14 2
v -1.5 14 1
v -1.5 14 -1
v -1.5 14 -2
v -1.5 15 2
v -1.5 15 1
v -1.5 15 -1
v -1.5 15 -2
v -0.5 15 2
v -0.5 15 1
v -0.5 15 -1
v -0.5 15 -2
v -0.5 16 2
v -0.5 16 1
v -0.5 16 -1
v -0.5 16 -2
v 0.5 7 2
v 0.5 7 1
v 0.5 7 -1
v 0.5 7 -2
v 0.5 9 1
v 0.5 9 -1
v 0.5 11 2
v 0.5 11 1
v 0.5 11 -1
v 0.5 11 -2
v 2.5 0 1
v 2.5 0 -1
v 2.5 6 1
v 2.5 6 -1
v 3.5 6 2
v 3.5 6 -2
v 3.5 7 2
v 3.5 7 1
v 3.5 7 -1
v 3.5 7 -2
v 3.5 8 2
v 3.5 8 1
v 3.5 8 -1
v 3.5 8 -2
v 4.5 8 2
v 4.5 8 1
v 4.5 8 -1
v 4.5 8 -2
v 4.5 9 1
v 4.5 9 -1
v 4.5 11 2
v 4.5 11 1
v 4.5 11 -1
v 4.5 11 -2
v 4.5 12 1
v 4.5 12 -1
v 4.5 13 1
v 4.5 13 -1
v 5.5 9 1
v 5.5 9 -1
v 5.5 12 1
v 5.5 12 -1
v -3.5 13 2
v -3.5 15 2
v -2.5 13 2
v -2.5 14 2
v -2.5 15 2
v -2.5 16 2
v -1.5 8 2
v -1.5 11 2
v -1.5 14 2
v -1.5 15 2
v -0.5 6 2
v -0.5 7 2
v -0.5 8 2
v -0.5 15 2
v -0.5 16 2
v 0.5 7 2
v 0.5 11 2
v 1.5 9 2
v 1.5 11 2
v 2.5 7 2
v 2.5 9 2
v 3.5 6 2
v 3.5 7 2
v 3.5 8 2
v 4.5 8 2
v 4.5 11 2
v -5.5 12 1
v -5.5 13 1
v -4.5 12 1
v -4.5 13 1
v -4.5 14 1
v -3.5 11 1
v -3.5 12 1
v -3.5 13 1
v -3.5 14 1
v -2.5 10 1
v -2.5 11 1
v -2.5 13 1
v -1.5 10 1
v -1.5 11 1
v -1.5 12 1
v -1.5 13 1
v -0.5 12 1
v -0.5 13 1
v 0.5 0 1
v 0.5 6 1
v 0.5 9 1
v 0.5 11 1
v 1.5 9 1
v 1.5 11 1
v 2.5 0 1
v 2.5 6 1
v 4.5 9 1
v 4.5 11 1
v 4.5 12 1
v 4.5 13 1
v 5.5 9 1
v 5.5 12 1
v -3.5 14 -1
v -3.5 15 -1
v -2.5 14 -1
v -2.5 15 -1
v -2.5 16 -1
v -1.5 8 -1
v -1.5 9 -1
v -1.5 14 -1
v -1.5 15 -1
v -0.5 7 -1
v -0.5 8 -1
v -0.5 15 -1
v -0.5 16 -1
v 0.5 7 -1
v 0.5 9 -1
v 2.5 7 -1
v 2.5 9 -1
v 3.5 7 -1
v 3.5 8 -1
v 4.5 8 -1
v 4.5 9 -1
v -3.5 14 1
v -3.5 15 1
v -2.5 14 1
v -2.5 15 1
v -2.5 16 1
v -1.5 8 1
v -1.5 9 1
v -1.5 14 1
v -1.5 15 1
v -0.5 7 1
v -0.5 8 1
v -0.5 15 1
v -0.5 16 1
v 0.5 7 1
v 0.5 9 1
v 2.5 7 1
v 2.5 9 1
v 3.5 7 1
v 3.5 8 1
v 4.5 8 1
v 4.5 9 1
v -5.5 12 -1
v -5.5 13 -1
v -4.5 12 -1
v -4.5 13 -1
v -4.5 14 -1
v -3.5 11 -1
v -3.5 12 -1
v -3.5 13 -1
v -3.5 14 -1
v -2.5 10 -1
v -2.5 11 -1
v -2.5 13 -1
v -1.5 10 -1
v -1.5 11 -1
v -1.5 12 -1
v -1.5 13 -1
v -0.5 12 -1
v -0.5 13 -1
v 0.5 0 -1
v 0.5 6 -1
v 0.5 9 -1
v 0.5 11 -1
v 1.5 9 -1
v 1.5 11 -1
v 2.5 0 -1
v 2.5 6 -1
v 4.5 9 -1
v 4.5 11 -1
v 4.5 12 -1
v 4.5 13 -1
v 5.5 9 -1
v 5.5 12 -1
v -3.5 13 -2
v -3.5 15 -2
v -2.5 13 -2
v -2.5 14 -2
v -2.5 15 -2
v -2.5 16 -2
v -1.5 8 -2
v -1.5 11 -2
v -1.5 14 -2
v -1.5 15 -2
v -0.5 6 -2
v -0.5 7 -2
v -0.5 8 -2
v -0.5 15 -2
v -0.5 16 -2
v 0.5 7 -2
v 0.5 11 -2
v 1.5 9 -2
v 1.5 11 -2
v 2.5 7 -2
v 2.5 9 -2
v 3.5 6 -2
v 3.5 7 -2
v 3.5 8 -2
v 4.5 8 -2
v 4.5 11 -2
v 0.5 0 1
v 2.5 0 1
v 0.5 0 -1
v 2.5 0 -1
v -0.5 6 2
v 3.5 6 2
v 0.5 6 1
v 2.5 6 1
v 0.5 6 -1
v 2.5 6 -1
v -0.5 6 -2
v 3.5 6 -2
v -1.5 8 2
v -0.5 8 2
v 3.5 8 2
v 4.5 8 2
v -1.5 8 1
v -0.5 8 1
v 3.5 8 1
v 4.5 8 1
v -1.5 8 -1
v -0.5 8 -1
v 3.5 8 -1
v 4.5 8 -1
v -1.5 8 -2
v -0.5 8 -2
v 3.5 8 -2
v 4.5 8 -2
v 1.5 9 2
v 2.5 9 2
v -1.5 9 1
v 0.5 9 1
v 1.5 9 1
v 2.5 9 1
v 4.5 9 1
v 5.5 9 1
v -1.5 9 -1
v 0.5 9 -1
v 1.5 9 -1
v 2.5 9 -1
v 4.5 9 -1
v 5.5 9 -1
v 1.5 9 -2
v 2.5 9 -2
v -2.5 10 1
v -1.5 10 1
v -2.5 10 -1
v -1.5 10 -1
v -3.5 11 1
v -2.5 11 1
v -3.5 11 -1
v -2.5 11 -1
v -5.5 12 1
v -4.5 12 1
v -3.5 12 1
v -5.5 12 -1
v -4.5 12 -1
v -3.5 12 -1
v -3.5 13 2
v -2.5 13 2
v -3.5 13 1
v -2.5 13 1
v -3.5 13 -1
v -2.5 13 -1
v -3.5 13 -2
v -2.5 13 -2
v -2.5 14 2
v -1.5 14 2
v -2.5 14 1
v -1.5 14 1
v -2.5 14 -1
v -1.5 14 -1
v -2.5 14 -2
v -1.5 14 -2
v -1.5 15 2
v -0.5 15 2
v -1.5 15 1
v -0.5 15 1
v -1.5 15 -1
v -0.5 15 -1
v -1.5 15 -2
v -0.5 15 -2
v 0.5 7 2
v 2.5 7 2
v -0.5 7 1
v 0.5 7 1
v 2.5 7 1
v 3.5 7 1
v -0.5 7 -1
v 0.5 7 -1
v 2.5 7 -1
v 3.5 7 -1
v 0.5 7 -2
v 2.5 7 -2
v -1.5 11 2
v 0.5 11 2
v 1.5 11 2
v 4.5 11 2
v -1.5 11 1
v 0.5 11 1
v 1.5 11 1
v 4.5 11 1
v -1.5 11 -1
v 0.5 11 -1
v 1.5 11 -1
v 4.5 11 -1
v -1.5 11 -2
v 0.5 11 -2
v 1.5 11 -2
v 4.5 11 -2
v -1.5 12 1
v -0.5 12 1
v 4.5 12 1
v 5.5 12 1
v -1.5 12 -1
v -0.5 12 -1
v 4.5 12 -1
v 5.5 12 -1
v -5.5 13 1
v -4.5 13 1
v -2.5 13 1
v -1.5 13 1
v -0.5 13 1
v 4.5 13 1
v -5.5 13 -1
v -4.5 13 -1
v -2.5 13 -1
v -1.5 13 -1
v -0.5 13 -1
v 4.5 13 -1
v -4.5 14 1
v -3.5 14 1
v -2.5 14 1
v -4.5 14 -1
v -3.5 14 -1
v -2.5 14 -1
v -3.5 15 2
v -2.5 15 2
v -3.5 15 1
v -2.5 15 1
v -3.5 15 -1
v -2.5 15 -1
v -3.5 15 -2
v -2.5 15 -2
v -2.5 16 2
v -0.5 16 2
v -2.5 16 1
v -0.5 16 1
v -2.5 16 -1
v -0.5 16 -1
v -2.5 16 -2
v -0.5 16 -2

# faces
f 3/1/1 2/1/1 1/1/1
f 4/1/1 2/1/1 3/1/1
f 7/1/1 6/1/1 5/1/1
f 8/1/1 6/1/1 7/1/1
f 11/1/1 10/1/1 9/1/1
f 12/1/1 10/1/1 11/1/1
f 17/3/1 14/3/1 13/3/1
f 18/3/1 16/3/1 15/3/1
f 19/3/1 17/3/1 13/3/1
f 20/3/1 17/3/1 19/3/1
f 21/3/1 16/3/1 18/3/1
f 22/3/1 16/3/1 21/3/1
f 25/1/1 24/1/1 23/1/1
f 26/1/1 24/1/1 25/1/1
f 31/3/1 28/3/1 27/3/1
f 32/3/1 28/3/1 31/3/1
f 33/3/1 30/3/1 29/3/1
f 34/3/1 30/3/1 33/3/1
f 39/1/1 36/1/1 35/1/1
f 40/1/1 38/1/1 37/1/1
f 41/1/1 39/1/1 35/1/1
f 41/1/1 40/1/1 39/1/1
f 42/1/1 38/1/1 40/1/1
f 42/1/1 40/1/1 41/1/1
f 43/1/1 41/1/1 35/1/1
f 44/1/1 41/1/1 43/1/1
f 45/1/1 38/1/1 42/1/1
f 46/1/1 38/1/1 45/1/1
f 49/2/1 48/2/1 47/2/1
f 50/2/1 48/2/1 49/2/1
f 51/2/1 48/2/1 50/2/1
f 52/2/1 48/2/1 51/2/1
f 53/1/1 50/1/1 49/1/1
f 54/1/1 50/1/1 53/1/1
f 55/1/1 52/1/1 51/1/1
f 56/1/1 52/1/1 55/1/1
f 59/1/1 58/1/1 57/1/1
f 60/1/1 58/1/1 59/1/1
f 63/2/1 62/2/1 61/2/1
f 64/2/1 62/2/1 63/2/1
f 69/1/1 66/1/1 65/1/1
f 70/1/1 66/1/1 69/1/1
f 71/1/1 68/1/1 67/1/1
f 72/1/1 68/1/1 71/1/1
f 77/1/1 74/1/1 73/1/1
f 78/1/1 74/1/1 77/1/1
f 79/1/1 76/1/1 75/1/1
f 80/1/1 76/1/1 79/1/1
f 81/3/2 82/3/2 85/3/2
f 82/1/2 83/1/2 86/1/2
f 85/3/2 82/3/2 86/3/2
f 83/3/2 84/3/2 87/3/2
f 86/1/2 83/1/2 87/1/2
f 87/3/2 84/3/2 88/3/2
f 89/1/2 90/1/2 91/1/2
f 91/1/2 90/1/2 92/1/2
f 93/3/2 94/3/2 97/3/2
f 97/3/2 94/3/2 98/3/2
f 95/3/2 96/3/2 99/3/2
f 99/3/2 96/3/2 100/3/2
f 101/3/2 102/3/2 105/3/2
f 105/3/2 102/3/2 106/3/2
f 103/3/2 104/3/2 107/3/2
f 107/3/2 104/3/2 108/3/2
f 109/1/2 110/1/2 113/1/2
f 111/1/2 112/1/2 114/1/2
f 109/1/2 113/1/2 115/1/2
f 115/1/2 113/1/2 116/1/2
f 114/1/2 112/1/2 117/1/2
f 117/1/2 112/1/2 118/1/2
f 119/2/2 120/2/2 121/2/2
f 121/2/2 120/2/2 122/2/2
f 123/2/2 124/2/2 125/2/2
f 125/2/2 124/2/2 126/2/2
f 126/2/2 124/2/2 127/2/2
f 127/2/2 124/2/2 128/2/2
f 125/1/2 126/1/2 129/1/2
f 129/1/2 126/1/2 130/1/2
f 127/1/2 128/1/2 131/1/2
f 131/1/2 128/1/2 132/1/2
f 133/1/2 134/1/2 137/1/2
f 135/1/2 136/1/2 138/1/2
f 133/1/2 137/1/2 139/1/2
f 139/1/2 137/1/2 140/1/2
f 138/1/2 136/1/2 141/1/2
f 141/1/2 136/1/2 142/1/2
f 143/1/2 144/1/2 145/1/2
f 145/1/2 144/1/2 146/1/2
f 147/1/2 148/1/2 149/1/2
f 149/1/2 148/1/2 150/1/2
f 153/3/3 152/3/3 151/3/3
f 154/3/3 152/3/3 153/3/3
f 155/3/3 152/3/3 154/3/3
f 159/3/3 156/3/3 155/3/3
f 159/3/3 155/3/3 154/3/3
f 160/3/3 156/3/3 159/3/3
f 163/1/3 158/1/3 157/1/3
f 164/3/3 156/3/3 160/3/3
f 165/3/3 156/3/3 164/3/3
f 166/2/3 162/2/3 161/2/3
f 166/1/3 163/1/3 162/1/3
f 167/1/3 158/1/3 163/1/3
f 167/1/3 163/1/3 166/1/3
f 170/2/3 166/2/3 161/2/3
f 171/1/3 169/1/3 168/1/3
f 172/2/3 170/2/3 161/2/3
f 173/1/3 171/1/3 170/1/3
f 173/2/3 170/2/3 172/2/3
f 174/1/3 171/1/3 173/1/3
f 175/1/3 171/1/3 174/1/3
f 176/1/3 169/1/3 171/1/3
f 176/1/3 171/1/3 175/1/3
f 179/1/3 178/1/3 177/1/3
f 180/1/3 178/1/3 179/1/3
f 183/4/3 180/4/3 179/4/3
f 184/1/3 181/1/3 180/1/3
f 184/4/3 180/4/3 183/4/3
f 185/1/3 181/1/3 184/1/3
f 187/1/3 183/1/3 182/1/3
f 187/1/3 184/1/3 183/1/3
f 188/1/3 184/1/3 187/1/3
f 189/1/3 187/1/3 186/1/3
f 189/1/3 188/1/3 187/1/3
f 190/1/3 188/1/3 189/1/3
f 191/1/3 188/1/3 190/1/3
f 192/1/3 188/1/3 191/1/3
f 193/1/3 191/1/3 190/1/3
f 198/1/3 193/1/3 190/1/3
f 198/1/3 194/1/3 193/1/3
f 199/1/3 198/1/3 197/1/3
f 200/1/3 194/1/3 198/1/3
f 200/1/3 198/1/3 199/1/3
f 201/2/3 196/2/3 195/2/3
f 202/2/3 196/2/3 201/2/3
f 204/1/3 194/1/3 200/1/3
f 205/1/3 194/1/3 204/1/3
f 206/1/3 194/1/3 205/1/3
f 207/1/3 204/1/3 203/1/3
f 207/1/3 205/1/3 204/1/3
f 208/1/3 205/1/3 207/1/3
f 211/3/3 210/3/3 209/3/3
f 212/3/3 210/3/3 211/3/3
f 216/3/3 212/3/3 211/3/3
f 216/3/3 213/3/3 212/3/3
f 217/3/3 213/3/3 216/3/3
f 219/1/3 215/1/3 214/1/3
f 220/3/3 213/3/3 217/3/3
f 221/3/3 213/3/3 220/3/3
f 222/1/3 219/1/3 218/1/3
f 223/1/3 215/1/3 219/1/3
f 223/1/3 219/1/3 222/1/3
f 226/1/3 225/1/3 224/1/3
f 227/1/3 225/1/3 226/1/3
f 228/1/3 225/1/3 227/1/3
f 229/1/3 225/1/3 228/1/3
f 230/3/4 231/3/4 232/3/4
f 232/3/4 231/3/4 233/3/4
f 232/3/4 233/3/4 237/3/4
f 233/3/4 234/3/4 237/3/4
f 237/3/4 234/3/4 238/3/4
f 235/1/4 236/1/4 240/1/4
f 238/3/4 234/3/4 241/3/4
f 241/3/4 234/3/4 242/3/4
f 239/1/4 240/1/4 243/1/4
f 240/1/4 236/1/4 244/1/4
f 243/1/4 240/1/4 244/1/4
f 245/1/4 246/1/4 247/1/4
f 247/1/4 246/1/4 248/1/4
f 248/1/4 246/1/4 249/1/4
f 249/1/4 246/1/4 250/1/4
f 251/1/4 252/1/4 253/1/4
f 253/1/4 252/1/4 254/1/4
f 253/4/4 254/4/4 257/4/4
f 254/1/4 255/1/4 258/1/4
f 257/4/4 254/4/4 258/4/4
f 258/1/4 255/1/4 259/1/4
f 256/1/4 257/1/4 261/1/4
f 257/1/4 258/1/4 261/1/4
f 261/1/4 258/1/4 262/1/4
f 260/1/4 261/1/4 263/1/4
f 261/1/4 262/1/4 263/1/4
f 263/1/4 262/1/4 264/1/4
f 264/1/4 262/1/4 265/1/4
f 265/1/4 262/1/4 266/1/4
f 264/1/4 265/1/4 267/1/4
f 264/1/4 267/1/4 272/1/4
f 267/1/4 268/1/4 272/1/4
f 271/1/4 272/1/4 273/1/4
f 272/1/4 268/1/4 274/1/4
f 273/1/4 272/1/4 274/1/4
f 269/2/4 270/2/4 275/2/4
f 275/2/4 270/2/4 276/2/4
f 274/1/4 268/1/4 278/1/4
f 278/1/4 268/1/4 279/1/4
f 279/1/4 268/1/4 280/1/4
f 277/1/4 278/1/4 281/1/4
f 278/1/4 279/1/4 281/1/4
f 281/1/4 279/1/4 282/1/4
f 283/3/4 284/3/4 285/3/4
f 285/3/4 284/3/4 286/3/4
f 286/3/4 284/3/4 287/3/4
f 287/3/4 288/3/4 291/3/4
f 286/3/4 287/3/4 291/3/4
f 291/3/4 288/3/4 292/3/4
f 289/1/4 290/1/4 295/1/4
f 292/3/4 288/3/4 296/3/4
f 296/3/4 288/3/4 297/3/4
f 293/2/4 294/2/4 298/2/4
f 294/1/4 295/1/4 298/1/4
f 295/1/4 290/1/4 299/1/4
f 298/1/4 295/1/4 299/1/4
f 293/2/4 298/2/4 302/2/4
f 300/1/4 301/1/4 303/1/4
f 293/2/4 302/2/4 304/2/4
f 302/1/4 303/1/4 305/1/4
f 304/2/4 302/2/4 305/2/4
f 305/1/4 303/1/4 306/1/4
f 306/1/4 303/1/4 307/1/4
f 303/1/4 301/1/4 308/1/4
f 307/1/4 303/1/4 308/1/4
f 311/2/5 310/2/5 309/2/5
f 312/2/5 310/2/5 311/2/5
f 315/2/5 314/2/5 313/2/5
f 316/2/5 314/2/5 315/2/5
f 317/2/5 315/2/5 313/2/5
f 318/2/5 314/2/5 316/2/5
f 319/2/5 317/2/5 313/2/5
f 319/2/5 318/2/5 317/2/5
f 320/2/5 314/2/5 318/2/5
f 320/2/5 318/2/5 319/2/5
f 325/1/5 322/1/5 321/1/5
f 326/1/5 322/1/5 325/1/5
f 327/1/5 324/1/5 323/1/5
f 328/1/5 324/1/5 327/1/5
f 333/1/5 330/1/5 329/1/5
f 334/1/5 330/1/5 333/1/5
f 335/1/5 332/1/5 331/1/5
f 336/1/5 332/1/5 335/1/5
f 341/1/5 338/1/5 337/1/5
f 342/1/5 338/1/5 341/1/5
f 345/1/5 340/1/5 339/1/5
f 345/1/5 344/1/5 343/1/5
f 345/1/5 343/1/5 342/1/5
f 345/1/5 342/1/5 341/1/5
f 345/1/5 341/1/5 340/1/5
f 346/1/5 344/1/5 345/1/5
f 347/1/5 344/1/5 346/1/5
f 348/1/5 344/1/5 347/1/5
f 349/1/5 344/1/5 348/1/5
f 350/1/5 344/1/5 349/1/5
f 351/1/5 348/1/5 347/1/5
f 352/1/5 348/1/5 351/1/5
f 355/1/5 354/1/5 353/1/5
f 356/1/5 354/1/5 355/1/5
f 359/1/5 358/1/5 357/1/5
f 360/1/5 358/1/5 359/1/5
f 364/1/5 362/1/5 361/1/5
f 365/4/5 363/4/5 362/4/5
f 365/1/5 362/1/5 364/1/5
f 366/4/5 363/4/5 365/4/5
f 369/3/5 368/3/5 367/3/5
f 370/3/5 368/3/5 369/3/5
f 373/3/5 372/3/5 371/3/5
f 374/3/5 372/3/5 373/3/5
f 377/3/5 376/3/5 375/3/5
f 378/3/5 376/3/5 377/3/5
f 381/3/5 380/3/5 379/3/5
f 382/3/5 380/3/5 381/3/5
f 385/3/5 384/3/5 383/3/5
f 386/3/5 384/3/5 385/3/5
f 389/3/5 388/3/5 387/3/5
f 390/3/5 388/3/5 389/3/5
f 391/2/6 392/2/6 394/2/6
f 394/2/6 392/2/6 395/2/6
f 393/2/6 394/2/6 397/2/6
f 395/2/6 396/2/6 397/2/6
f 394/2/6 395/2/6 397/2/6
f 397/2/6 396/2/6 398/2/6
f 398/2/6 396/2/6 399/2/6
f 399/2/6 396/2/6 400/2/6
f 398/2/6 399/2/6 401/2/6
f 401/2/6 399/2/6 402/2/6
f 403/1/6 404/1/6 407/1/6
f 407/1/6 404/1/6 408/1/6
f 405/1/6 406/1/6 409/1/6
f 409/1/6 406/1/6 410/1/6
f 411/1/6 412/1/6 415/1/6
f 415/1/6 412/1/6 416/1/6
f 413/1/6 414/1/6 417/1/6
f 417/1/6 414/1/6 418/1/6
f 419/1/6 420/1/6 423/1/6
f 423/1/6 420/1/6 424/1/6
f 421/1/6 422/1/6 425/1/6
f 425/1/6 422/1/6 426/1/6
f 427/1/6 428/1/6 433/1/6
f 433/1/6 428/1/6 434/1/6
f 429/1/6 430/1/6 435/1/6
f 435/1/6 430/1/6 436/1/6
f 431/1/6 432/1/6 437/1/6
f 437/1/6 432/1/6 438/1/6
f 439/1/6 440/1/6 442/1/6
f 440/1/6 441/1/6 442/1/6
f 442/1/6 441/1/6 443/1/6
f 443/1/6 441/1/6 444/1/6
f 445/3/6 446/3/6 447/3/6
f 447/3/6 446/3/6 448/3/6
f 449/3/6 450/3/6 451/3/6
f 451/3/6 450/3/6 452/3/6
f 453/3/6 454/3/6 455/3/6
f 455/3/6 454/3/6 456/3/6
f 457/3/6 458/3/6 459/3/6
f 459/3/6 458/3/6 460/3/6
